<svg xmlns="http://www.w3.org/2000/svg" viewBox="0 0 400 250"> <defs> <linearGradient id="bg3" x1="0" y1="0" x2="1" y2="1"><stop offset="0" stop-color="#0a1620"/><stop offset="1" stop-color="#0c2b33"/></linearGradient> <linearGradient id="cy" x1="0" y1="0" x2="1" y2="1"><stop offset="0" stop-color="#31e5d4"/><stop offset="1" stop-color="#2aa9e0"/></linearGradient> </defs> <rect width="400" height="250" fill="url(#bg3)"/> <g opacity=".5"> <rect x="40" y="150" width="320" height="18" rx="5" fill="#123240"/> <rect x="40" y="150" width="150" height="18" rx="5" fill="url(#cy)" opacity=".75"/> <rect x="40" y="176" width="320" height="12" rx="4" fill="#123240"/> <rect x="40" y="176" width="230" height="12" rx="4" fill="#1d5a6b"/> </g> <g stroke="#1d5a6b" stroke-width="2" opacity=".7"><path d="M40 132h320"/><path d="M70 124v16M110 126v12M150 124v16M190 126v12M230 124v16M270 126v12M310 124v16"/></g> <rect x="128" y="40" width="144" height="80" rx="12" fill="none" stroke="url(#cy)" stroke-width="3"/> <path d="M182 62l34 18-34 18z" fill="url(#cy)"/> <circle cx="190" cy="150" r="9" fill="#31e5d4"/> <rect x="186" y="140" width="8" height="52" rx="4" fill="#31e5d4" opacity=".85"/> </svg>