<svg xmlns="http://www.w3.org/2000/svg" viewBox="0 0 400 250"> <defs> <linearGradient id="bg4" x1="0" y1="0" x2="1" y2="1"><stop offset="0" stop-color="#140708"/><stop offset="1" stop-color="#2c0a0e"/></linearGradient> <linearGradient id="rd" x1="0" y1="0" x2="0" y2="1"><stop offset="0" stop-color="#ff5f6d"/><stop offset="1" stop-color="#c9184a"/></linearGradient> </defs> <rect width="400" height="250" fill="url(#bg4)"/> <g opacity=".18" fill="#ff5f6d"><rect x="30" y="30" width="46" height="8" rx="4"/><rect x="30" y="46" width="30" height="8" rx="4"/><rect x="324" y="204" width="46" height="8" rx="4"/></g> <rect x="92" y="52" width="216" height="126" rx="14" fill="#1c0d10" stroke="url(#rd)" stroke-width="2.5"/> <rect x="106" y="66" width="188" height="88" rx="8" fill="#2a1116"/> <path d="M186 92l40 21-40 21z" fill="url(#rd)"/> <rect x="150" y="192" width="100" height="7" rx="3.5" fill="url(#rd)" opacity=".8"/> <rect x="176" y="178" width="48" height="10" rx="3" fill="#3a161c"/> <g fill="url(#rd)" opacity=".9"><circle cx="330" cy="70" r="4"/><circle cx="348" cy="92" r="3"/><circle cx="62" cy="150" r="3.5"/></g> </svg>